<?xml version="1.0" encoding="utf-8"?>
<!-- Generator: Adobe Illustrator 17.0.0, SVG Export Plug-In . SVG Version: 6.00 Build 0)  -->
<!DOCTYPE svg PUBLIC "-//W3C//DTD SVG 1.1//EN" "http://www.w3.org/Graphics/SVG/1.1/DTD/svg11.dtd">
<svg version="1.1" xmlns="http://www.w3.org/2000/svg" xmlns:xlink="http://www.w3.org/1999/xlink" x="0px" y="0px" width="500px"
	 height="150px" viewBox="0 0 500 150" enable-background="new 0 0 500 150" xml:space="preserve">
<g id="Layer_1" display="none">
	<path display="inline" fill="#DE6CA9" d="M226.214,65.194c-0.784,0.241-1.021,1.357-2.293,1.249c0.8-1.77,1.931-3.194,2.985-4.662
		c0.578-0.805,1.289-1.546,1.707-2.426c0.532-1.119,1.407-1.532,2.388-1.128c1.147,0.472,2.576,0.871,2.634,2.561
		c0.061,1.788-0.854,3.282-1.564,4.797c-3.886,8.301-7.722,16.63-11.837,24.818c-1.997,3.973-3.92,7.969-5.681,12.046
		c-0.364,0.842-0.595,1.741-0.783,2.663c1.799-1.852,3.039-4.091,4.603-6.084c0.298-0.379,0.241-2.057,1.534-0.852
		c0.13-0.558,1.23-0.729,0.575-1.632c-0.362-0.499,0.151-0.976,0.468-1.263c0.609-0.549,0.512-2.135,2.008-1.46
		c0.014,0.006,0.103-0.081,0.098-0.118c-0.191-1.748,2.003-1.492,2.432-2.923c0.22-0.737,0.44-1.61,0.806-2.271
		c0.809-1.459,1.626-3.047,3.427-3.63c0.345-0.112,0.528-0.453,0.409-0.733c-0.179-0.419,0.076-0.748,0.264-0.864
		c2.594-1.597,3.324-4.753,5.697-6.614c2.332-1.828,4.234-4.196,6.399-6.248c7.735-7.328,15.867-14.164,24.988-19.734
		c2.184-1.334,3.749-1.088,5.502,0.608c0.435,0.421,0.607,0.938,0.473,1.508c-0.134,0.568-0.534,1.111-1.107,1.049
		c-1.49-0.162-2.504,0.752-3.577,1.458c-9.38,6.168-17.947,13.318-25.916,21.228c-3.063,3.04-5.877,6.277-8.724,9.5
		c-0.811,0.918-1.011,1.962-0.787,3.074c1.908,9.499,5.159,18.47,10.663,26.517c1.559,2.279,3.499,4.227,5.652,5.988
		c2.012,1.647,3.307,1.559,5.544-1.018c0.555-0.64,1.025-1.354,1.599-2.12c1.104,2.919-1.324,5.699-4.619,6.134
		c-5.609,0.739-8.779-2.652-11.737-6.475c-5.522-7.136-8.791-15.376-11.502-23.876c-0.082-0.258-0.17-0.514-0.312-0.941
		c-0.95,0.684-1.353,1.647-1.964,2.437c-4.517,5.842-8.449,12.062-12.04,18.508c-0.65,1.168-1.206,2.768-2.878,2.605
		c-2.126-0.207-4.21-0.79-5.745-2.488c-0.39-0.432-0.221-0.904-0.114-1.399c1.619-7.505,4.665-14.489,7.936-21.371
		c4.051-8.524,7.938-17.128,12.304-25.5C226.289,65.806,226.436,65.525,226.214,65.194z"/>
	<path display="inline" fill="#DE6CA9" d="M191.642,113.224c1.204,0.13,1.831-0.789,3.192-0.994
		c-2.759,2.339-5.328,3.841-8.674,3.694c-7.194-0.316-10.096-5.677-11.223-10.997c-0.922-4.351,0.103-8.553,2.104-12.437
		c1.117-2.168,1.234-3.708-0.678-5.619c-2.813-2.813-3.06-7.057-1.165-10.551c0.25-0.462,0.467-0.942,0.53-1.501
		c-0.304,0.371-0.609,0.742-0.941,1.146c-0.108-1.811,1.048-2.957,1.998-4.201c0.17-0.223,0.529-0.482,0.667-0.201
		c0.388,0.785,0.721,0.223,0.95-0.021c1.078-1.147,2.114-2.333,3.391-3.758c-1.113,0.376-1.38,1.507-2.719,1.405
		c1.197-0.675,1.538-2.094,3.063-1.737c0.226,0.053,0.593-0.442,0.879-0.7c1.598-1.442,3.207-2.872,4.776-4.345
		c0.454-0.426,1.44-0.663,0.817-1.676c-0.048-0.078,0.27-0.438,0.471-0.602c3.069-2.51,6.398-4.812,10.157-5.86
		c2.977-0.83,6.332-0.869,9.357,0.632c2.414,1.198,4.642,2.719,5.739,5.247c2.016,4.644,2.731,9.66,1.885,14.553
		c-0.765,4.418-1.936,8.837-3.952,12.981c-2.309,4.746-4.535,9.546-7.591,13.844c-3.074,4.326-6.86,8.01-11.532,10.676
		C192.681,112.468,192.259,112.803,191.642,113.224z"/>
	<path display="inline" fill="#F7F7F8" d="M283.732,83.677c0-12.108,0.02-24.217-0.031-36.325c-0.005-1.229,0.271-1.553,1.526-1.539
		c7.684,0.085,15.371-0.022,23.054,0.11c18.322,0.315,33.001,13.048,35.863,31.134c2.078,13.132-1.108,24.768-10.626,34.273
		c-6.076,6.068-13.694,9.119-22.178,9.895c-8.824,0.806-17.681,0.15-26.519,0.38c-1.301,0.034-1.09-0.684-1.09-1.437
		C283.732,108.004,283.732,95.84,283.732,83.677z"/>
	<path display="inline" fill="#F7F7F8" d="M412.124,121.407c-2.04,0.701-2.864-0.231-3.546-2c-2.966-7.682-6.096-15.3-9.114-22.962
		c-0.414-1.052-0.883-1.506-2.113-1.5c-11.663,0.058-23.326,0.049-34.989,0.01c-1.074-0.004-1.616,0.231-2.03,1.323
		c-2.916,7.699-5.926,15.362-8.9,23.039c-0.902,2.327-0.894,2.33-3.661,2.19c1.465-3.749,2.899-7.455,4.36-11.151
		c8.271-20.928,16.56-41.849,24.791-62.793c0.483-1.23,1.046-1.662,2.374-1.611c2.94,0.114,2.938,0.036,4.024,2.765
		c4.446,11.168,8.893,22.336,13.343,33.502c5.04,12.645,10.087,25.287,15.113,37.938C411.93,120.551,412.262,120.92,412.124,121.407
		z"/>
	<path display="inline" fill="#FEFEFE" d="M37.176,51.217c7.598-0.097,14.779,1.356,21.184,5.694
		c1.696,1.149,3.298,2.418,4.723,3.887c0.378,0.39,1.445,0.663,0.418,1.609c-0.781,0.719-1.162,0.536-1.787-0.139
		c-9.869-10.659-29.218-11.845-40.695-4.032C12.757,63.862,7.957,71.73,6.657,81.553c-1.869,14.126,2.924,25.668,14.921,33.471
		c16.322,10.616,39.842,3.307,45.644-16.175c0.485-1.628,0.739-3.324,1.123-4.983c0.287-1.241-0.169-1.531-1.419-1.524
		c-9.785,0.058-19.57,0.023-29.355,0.047c-0.942,0.002-1.599-0.032-1.431-1.272c0.077-0.568,0.229-0.762,0.787-0.742
		c0.883,0.032,1.769,0.008,2.653,0.008c9.896,0,19.792,0.029,29.687-0.034c1.343-0.008,1.599,0.354,1.471,1.624
		c-1.462,14.477-11.248,26.686-25.98,29.289c-19.627,3.468-36.511-8.407-40.137-28.188C1.716,77.243,9.608,61.041,23.452,54.46
		c3.504-1.666,7.169-2.779,11.078-2.948C35.433,51.603,36.189,50.373,37.176,51.217z"/>
	<path display="inline" fill="#F7F7F7" d="M457.319,83.92c0-12.053,0.021-24.105-0.031-36.158c-0.005-1.245,0.301-1.546,1.542-1.541
		c12.439,0.05,24.879,0.028,37.319,0.038c0.69,0.001,1.539-0.345,1.55,1.011c0.01,1.262-0.603,1.27-1.527,1.268
		c-11.5-0.018-23,0.014-34.499-0.044c-1.39-0.007-1.715,0.373-1.706,1.737c0.063,9.841,0.06,19.682,0.002,29.523
		c-0.008,1.323,0.354,1.654,1.659,1.648c11.334-0.052,22.668-0.036,34.002-0.01c0.572,0.001,1.446-0.485,1.532,0.825
		c0.084,1.292-0.573,1.245-1.478,1.244c-11.389-0.017-22.779,0.012-34.168-0.043c-1.3-0.006-1.629,0.322-1.622,1.621
		c0.055,10.891,0.057,21.783-0.002,32.675c-0.007,1.319,0.355,1.606,1.626,1.6c11.555-0.051,23.11-0.014,34.665-0.054
		c1.129-0.004,1.617,0.246,1.496,1.45c-0.062,0.618-0.198,0.931-0.854,0.867c-0.219-0.021-0.442-0.003-0.663-0.003
		c-12.44,0-24.879-0.018-37.319,0.029c-1.216,0.005-1.563-0.255-1.557-1.526C457.341,108.026,457.319,95.973,457.319,83.92z"/>
	<path display="inline" fill="#FFFFFF" d="M86.636,86.613c0-11.059,0.026-22.118-0.034-33.176c-0.007-1.332,0.374-1.599,1.632-1.592
		c10.34,0.051,20.68,0.024,31.02,0.042c0.656,0.001,1.63-0.426,1.559,0.972c-0.039,0.764-0.175,1.071-1.008,1.052
		c-2.266-0.052-4.534-0.017-6.801-0.017c-7.575,0-15.151,0.021-22.726-0.024c-1.062-0.006-1.381,0.243-1.375,1.347
		c0.046,9.289,0.047,18.579,0,27.868c-0.006,1.108,0.32,1.349,1.377,1.344c9.566-0.04,19.132-0.027,28.697-0.016
		c0.647,0.001,1.5-0.313,1.435,0.947c-0.039,0.755-0.185,1.082-1.015,1.059c-1.934-0.053-3.87-0.017-5.805-0.017
		c-7.796,0-15.593,0.027-23.389-0.028c-1.179-0.008-1.451,0.33-1.446,1.471c0.045,10.063,0.051,20.127-0.005,30.19
		c-0.007,1.292,0.405,1.531,1.603,1.525c9.676-0.049,19.353-0.025,29.029-0.033c0.8-0.001,1.477-0.122,1.442,1.131
		c-0.036,1.283-0.849,0.906-1.466,0.907c-8.571,0.016-17.141,0.011-25.712,0.011c-1.769,0-3.552-0.131-5.304,0.039
		c-1.564,0.152-1.745-0.466-1.739-1.825C86.659,108.73,86.636,97.672,86.636,86.613z"/>
	<path display="inline" fill="#F6F7F7" d="M430.394,84.912c0,11.72-0.01,23.44,0.018,35.16c0.002,1.006-0.019,1.559-1.338,1.561
		c-1.391,0.003-1.297-0.683-1.296-1.626c0.014-23.274-0.007-46.549,0.049-69.823c0.004-1.56-0.443-1.888-1.917-1.869
		c-6.357,0.081-12.715,0.035-19.072,0.034c-0.694,0-1.375,0.201-1.38-1.01c-0.004-1.176,0.527-1.176,1.392-1.175
		c14.816,0.017,29.632,0.012,44.448,0.012c0.704,0,1.364-0.178,1.375,1.018c0.011,1.203-0.569,1.166-1.41,1.164
		c-6.358-0.017-12.716,0.033-19.072-0.042c-1.394-0.017-1.849,0.234-1.838,1.767C430.429,61.693,430.394,73.303,430.394,84.912z"/>
	<path display="inline" fill="#FFFFFF" d="M149.016,87.717c0,10.836-0.014,21.671,0.023,32.507c0.004,1.04-0.201,1.496-1.334,1.377
		c-0.631-0.066-0.904-0.222-0.842-0.869c0.037-0.383,0.006-0.773,0.006-1.16c0-21.34-0.014-42.679,0.033-64.019
		c0.003-1.365-0.302-1.758-1.706-1.734c-5.25,0.09-10.503,0.035-15.755,0.037c-0.76,0-1.528,0.202-1.519-1.078
		c0.009-1.313,0.839-1.035,1.56-1.036c12.273-0.006,24.546-0.008,36.819,0.006c0.689,0.001,1.566-0.348,1.598,1.001
		c0.034,1.445-0.895,1.098-1.652,1.099c-5.252,0.012-10.505,0.057-15.755-0.029c-1.289-0.021-1.509,0.365-1.503,1.557
		C149.036,66.156,149.016,76.936,149.016,87.717z"/>
	<path display="inline" fill="#DF7FB3" d="M368.974,29.674c0.939-3.545,5.248-5.265,8.488-3.011c2.004,1.395,3.252,1.504,5.23-0.006
		c2.298-1.755,5.712-1.07,7.506,0.988c0.662,0.759,1.22,1.584,0.988,2.684c-0.798,0.446-0.102,1.841-1.294,2.039
		c-0.364-0.327-0.354-0.783-0.43-1.214c-0.493-2.8-3.027-4.073-5.572-2.814c-0.752,0.372-1.366,0.915-1.981,1.471
		c-1.583,1.429-2.071,1.432-3.606-0.02c-1.627-1.539-3.388-2.391-5.687-1.545c-1.014,0.373-1.305,1.479-2.226,1.897
		C369.859,30.166,369.355,30.102,368.974,29.674z"/>
	<path display="inline" fill="#EFCCDD" d="M388.243,37.659c-2.305,2.823-5.129,5.129-7.703,7.684
		c-0.581,0.576-0.994-0.037-1.374-0.406c-2.725-2.649-5.442-5.305-8.162-7.959c-0.181-0.768,0.325-1.017,0.909-1.21
		c0.615-0.007,1.029,0.381,1.399,0.784c1.759,1.913,3.957,3.364,5.653,5.332c0.901,1.046,1.532,0.866,2.38-0.058
		c1.267-1.381,2.601-2.705,3.985-3.972c0.596-0.545,1.145-1.234,2.091-1.201C387.936,36.792,388.419,36.957,388.243,37.659z"/>
	<path display="inline" fill="#E39BC0" d="M372.092,35.963c-0.513,0.176-0.857,0.534-1.088,1.014
		c-1.997-2.068-2.928-4.431-2.03-7.303c0.475,0.022,0.999-0.157,1.358,0.334c0.256,0.23,0.413,0.53,0.409,0.86
		c-0.019,1.513,0.365,2.896,1.215,4.155C372.139,35.294,372.193,35.629,372.092,35.963z"/>
	<path display="inline" fill="#E8A3C7" d="M388.243,37.659c-0.186-0.54-0.631-0.69-1.133-0.755c0.747-1.656,1.824-3.105,2.861-4.58
		c0.718-0.474-0.389-2.06,1.215-1.994C391.57,33.322,390.969,35.917,388.243,37.659z"/>
	<path display="inline" fill="#190614" d="M233.176,84.339c-0.441-0.743-0.022-1.171,0.309-1.585
		c4.734-5.903,9.862-11.409,15.928-15.992c0.96-0.725,1.747-1.679,2.616-2.525c0.422-0.411,0.809-0.929,1.815-0.442
		C246.243,70.044,238.948,76.403,233.176,84.339z"/>
	<path display="inline" fill="#24091D" d="M218.333,86.639c-3.242,7.172-7.088,14.035-9.573,21.502
		C210.469,100.312,214.402,93.454,218.333,86.639z"/>
	<path display="inline" fill="#200819" d="M241.817,117.477c-4.64-4.804-7.375-10.675-9.423-16.93
		C234.923,106.533,237.905,112.265,241.817,117.477z"/>
	<path display="inline" fill="#280A20" d="M215.961,94.184c-0.081,1.443-0.592,2.725-1.325,3.952
		c-0.378,0.633-1.226,1.108-0.438,2.187c0.329,0.451-0.655,1.097-1.731,1.433C213.456,98.964,214.595,96.528,215.961,94.184z"/>
	<path display="inline" fill="#3B1330" d="M212.789,103.818c-0.509,1.255-1.019,2.509-1.528,3.764
		C211.444,106.207,211.392,104.753,212.789,103.818z"/>
	<path display="inline" fill="#010101" d="M197.484,92.035c2.077,0.197,3.611-1.335,5.525-1.824
		c-2.475,0.473-4.948,0.108-7.415,0.332c-3.367,0.306-6.691-0.251-9.98-0.963c-0.873-0.189-1.083-0.77-0.618-1.453
		c3.04-4.463,5.268-9.632,10.484-12.226c0.96-0.477,1.098-1.099,0.511-1.968c-1.482-2.192-2.614-3.548-5.561-1.481
		c-2.024,1.42-3.696,3.082-5.026,5.149c-1.959,3.046-4.206,5.917-5.475,9.403c-2.221-1.851-2.902-5.252-1.588-7.785
		c0.913-1.759,1.925-3.488,3.249-4.959c3.185-3.54,6.312-7.055,10.215-9.977c3.698-2.768,7.482-4.93,11.863-6.163
		c0.894-0.252,1.816-0.425,2.736-0.563c1.311-0.196,2.286,0.293,3.132,1.368c1.142,1.451,1.554,3.28,2.738,4.764
		c0.482,0.604,0.314,2.487,0.26,3.748c-0.206,4.821-0.458,9.634-1.882,14.332c-0.577,1.903-1.434,3.781-1.482,5.846
		c2.384-3.411,2.484-7.63,4.076-11.317c-0.498,6.889-3.651,12.81-6.905,18.695c-0.254,0.039-0.463,0.04-0.26-0.307
		c0.543-1.957,2.254-3.436,2.52-6.03c-1.612,1.718-2.316,3.434-3.142,5.071c-3.558,7.054-8.174,13.193-15.063,17.348
		c-0.839,0.506-1.725,0.972-2.646,1.295c-5.85,2.051-8.083-0.554-8.899-5.827c-0.73-4.717,1.405-8.654,3.031-12.77
		c0.702-1.777,1.809-1.739,3.386-1.32c3.788,1.006,7.642,0.73,11.482,0.237c0.128-0.016,0.238-0.176,0.356-0.269
		C197.028,92.09,197.113,91.921,197.484,92.035z"/>
	<path display="inline" fill="#451938" d="M206.082,94.684c0.087,0.102,0.173,0.205,0.26,0.307c-0.87,1.479-1.74,2.958-2.61,4.437
		C204.131,97.628,205.079,96.141,206.082,94.684z"/>
	<path display="inline" fill="#4C1E3F" d="M197.484,92.035c-0.126,0.128-0.252,0.256-0.378,0.384
		c-0.938-0.189-1.922,0.195-3.315-0.338C195.322,91.797,196.377,91.384,197.484,92.035z"/>
	<path display="inline" fill="#290A20" d="M213.937,70.977c0.072,0.865,0.406,1.774-0.259,2.695
		C212.943,72.603,213.88,71.83,213.937,70.977z"/>
	<path display="inline" fill="#010101" d="M289.335,54.537c-0.276-1.892-0.876-3.746-0.345-5.713
		c0.163-0.605,0.305-0.829,0.923-0.814c7.454,0.182,14.928-0.432,22.363,0.526c14.162,1.825,25.355,11.617,28.77,25.58
		c2.831,11.575,1.14,22.466-6.192,32.119c-5.671,7.466-13.458,11.474-22.616,12.618c-8.299,1.037-16.677,0.241-25.018,0.443
		c-0.777,0.019-0.958-0.305-0.887-0.975c0.029-0.273,0.004-0.552,0.004-0.829c0-22.561-0.001-45.122,0.006-67.683
		c0-0.541-0.066-1.172,0.18-1.599c0.255-0.444,0.918-0.197,1.39-0.162c0.627,0.046,0.413,0.578,0.335,0.896
		c-0.472,1.923-0.101,3.783,0.358,5.641c0.28,0.116,0.419,0.347,0.489,0.623c1.556,6.156,4.772,11.465,8.441,16.541
		c0.838,1.159,0.455,2.889-0.953,3.815c-1.202,0.79-2.513,1.383-3.873,1.858c-1.376,0.456-2.666,1.049-3.659,2.16
		c-0.986,1.103-1.187,2.304-0.569,3.667c1.234,2.721,3.046,3.989,5.263,3.642c2.638-0.413,4.889-3.035,5.109-5.965
		c0.107-1.428-0.091-2.867,0.126-4.295c0.624-1.26,1.258-0.579,1.895-0.014c1.168,1.196,1.193,2.394,0.342,3.867
		c-1.299,2.249-1.331,4.74-0.833,7.243c0.346,3.218,2.557,5.364,4.61,7.467c3.468,3.55,6.601,7.417,10.286,10.765
		c0.984,0.893,1.53,0.966,2.568,0.045c4.003-3.553,7.719-7.41,11.755-10.93c2.126-1.854,3.719-4.23,4.277-7.125
		c0.829-6.178-2.398-9.968-7.609-11.83c-3.233-1.155-6.784,1.016-8.103,4.579c-0.327,0.884-0.221,2.314-1.438,2.351
		c-1.071,0.033-1.15-1.342-1.533-2.146c-1.073-2.253-2.548-3.984-5.086-4.622c-2.09-0.526-3.974,0.163-5.734,1.072
		c-1.361,0.703-2.276,0.615-3.037-0.712c-1.532-2.422-0.68-4.765,2.106-5.575c3.739-1.087,5.845-3.583,6.546-7.341
		c0.329-1.765-0.332-3.329-1.713-4.157c-1.51-0.905-3.135-0.816-4.326,0.309c-2.776,2.622-4.893,5.677-4.93,9.734
		c-0.007,0.795,0.397,1.894-0.554,2.212c-0.939,0.314-1.355-0.77-1.776-1.429c-2.767-4.326-5.547-8.65-7.114-13.607
		C289.347,56.045,289.047,55.328,289.335,54.537z"/>
	<path display="inline" fill="#EFBDD6" d="M300.528,76.819c-0.415-0.15-0.795-1.414-1.259-0.04c-0.157,0.442-0.206,1.014-0.93,0.784
		c-0.455-1.005-0.976-1.215-2.019-0.534c-1.011,0.66-2.153,1.358-3.515,0.897c-0.279-0.25-0.381-0.524-0.121-0.849
		c1.112-0.557,2.173-1.29,3.348-1.625c1.396-0.398,0.986-1.836,1.773-2.558c0.2-0.184-0.388-0.571-0.603-0.872
		c-3.828-5.335-7.374-10.814-8.596-17.436c0.243-0.016,0.486-0.032,0.729-0.048c1.567,5.712,4.532,10.736,7.722,15.647
		c0.375,0.578,0.792,1.129,1.21,1.721c0.639-0.496,0.44-1.053,0.37-1.464c-0.695-4.087,1.665-7.025,3.888-9.894
		c1.746-2.253,4.148-2.596,6.113-1.385c1.83,1.128,2.442,3.648,1.463,6.199c-1.235,3.22-3.298,5.617-6.884,6.088
		c-1.529,0.201-1.143,1.63-1.907,2.228c-1.484,1.161,0.159,1.851,0.358,2.755C301.427,76.971,301.043,77.089,300.528,76.819z"/>
	<path display="inline" fill="#010101" d="M398.023,92.651c-12.101,0-24.021,0-36.151,0c1.127-2.918,2.204-5.721,3.292-8.519
		c4.494-11.558,8.985-23.116,13.502-34.664c0.233-0.595,0.239-1.468,1.306-1.422c0.961,0.041,0.946,0.83,1.163,1.382
		c5.544,14.093,11.066,28.194,16.59,42.295C397.824,91.974,397.891,92.237,398.023,92.651z"/>
	<path display="inline" fill="none" d="M46.214,38.303c0.012-0.017,0.02-0.038,0.031-0.056c-0.012,0.001-0.024,0.002-0.035,0.004
		C46.21,38.268,46.213,38.285,46.214,38.303z"/>
	<path display="inline" fill="#EAA8CB" d="M47.427,36.645c0.3-1.859-0.69-3.086-2.121-3.963c-2.081-1.275-4.444-1.609-6.372-0.063
		c-1.942,1.557-3.218,1.424-5.228,0.02c-3.236-2.26-7.55-0.539-8.49,3.007h0c-0.899,2.872,0.034,5.236,2.03,7.303l0,0c0,0,0,0,0,0
		c2.662,2.8,5.325,5.601,7.911,8.32c-0.029,0.011-0.328,0.127-0.628,0.242c0.924,0.281,1.735-0.462,2.647-0.295
		c1.974-2.526,4.596-4.416,6.699-6.815C46.364,42.414,48.071,40.068,47.427,36.645z M46.214,38.303
		c-0.379,2.088-1.918,3.419-3.209,4.913c-1.912,1.806-3.869,3.568-5.716,5.438c-0.77,0.779-1.191,0.741-1.949-0.016
		c-2.286-2.284-4.665-4.475-7.007-6.701c-1.41-1.742-2.271-3.646-1.759-5.956c1.685-2.841,4.37-3.425,7.104-1.528
		c0.45,0.312,0.921,0.642,1.253,1.065c0.951,1.216,1.762,1.164,2.768,0.008c0.869-0.998,1.994-1.737,3.323-2.048
		c3.022-0.707,4.978,1.106,5.187,4.774c0.011-0.002,0.024-0.003,0.035-0.004C46.234,38.265,46.226,38.285,46.214,38.303z"/>
	<path display="inline" fill="#020101" d="M389.97,32.324c-0.341,1.909-1.683,3.193-2.86,4.58c-2.021,1.912-4.079,3.786-6.042,5.754
		c-0.746,0.748-1.164,0.818-1.954,0.025c-2.285-2.296-4.674-4.487-7.022-6.72c-1.41-1.742-2.271-3.646-1.759-5.956
		c1.684-2.84,4.369-3.425,7.103-1.53c0.45,0.312,0.921,0.642,1.253,1.065c0.949,1.211,1.759,1.172,2.767,0.012
		c0.868-0.999,1.993-1.737,3.321-2.049C387.813,26.791,389.781,28.624,389.97,32.324z"/>
	<path display="inline" fill="#E691BE" d="M334.191,88.057c-0.271,3.06-2.182,5.249-4.199,7.22
		c-4.096,4.003-8.383,7.811-12.586,11.703c-0.433,0.401-0.705,0.938-1.435,0.241c-5.024-4.796-9.665-9.948-14.248-15.156
		c-1.011-1.148-1.474-2.522-1.682-4.006c0.616-0.613,1.415-0.559,2.18-0.56c9.931-0.016,19.863-0.017,29.794,0.001
		C332.775,87.501,333.577,87.435,334.191,88.057z"/>
	<path display="inline" fill="#EBA7CA" d="M334.191,88.057c-11.384,0.001-22.768,0.001-34.151,0.002
		c-0.687-2.615-0.767-5.262,0.68-7.589c0.896-1.44,0.936-2.485-0.192-3.65c0.38-0.129,0.76-0.258,1.14-0.387
		c0.7,1.164,1.352,1.052,2.576,0.424c4.404-2.259,8.792-1.449,11.14,3.452c0.445,0.929,0.878,1.864,1.314,2.79
		c0.663-0.27,0.533-0.852,0.625-1.302c1.16-5.669,6.917-8.494,12.432-4.535c3.488,2.504,4.991,5.831,4.707,10.042
		C334.445,87.56,334.285,87.806,334.191,88.057z"/>
	<path display="inline" fill="#E8A2C6" d="M298.283,77.41c0.529,0.103,0.686-0.375,0.986-0.631c0.02,1.429,0.112,2.861,0.046,4.286
		c-0.167,3.587-3.358,6.531-6.789,6.337c-1.861-0.105-4.196-2.402-4.854-4.775c-0.412-1.486,0.318-3.111,2.06-4.279
		c0.89-0.597,1.78-1.29,2.953-1.272c0.012,0.308,0.107,0.57,0.402,0.72c-0.075,0.865-0.874,0.872-1.411,1.186
		c-1.108,0.648-2.365,1.348-2.297,2.765c0.085,1.765,1.312,3.027,2.758,3.885c1.285,0.762,2.451,0.028,3.447-0.817
		c1.66-1.41,2.418-3.202,2.23-5.408C297.756,78.727,297.265,77.868,298.283,77.41z"/>
	<path display="inline" fill="#020202" d="M299.653,67.919c0.877-2.706,2.257-5.782,5.149-7.843
		c1.002-0.714,2.326-0.548,3.387,0.232c1.016,0.748,1.292,1.859,1.206,3.049c-0.235,3.265-2.777,6.061-6.412,7.097
		c-0.21,0.06-0.441,0.049-0.651,0.109C299.702,71.323,299.703,71.325,299.653,67.919z"/>
	<path display="inline" fill="#030203" d="M298.283,77.41c-0.287,1.481,0.216,2.979-0.25,4.489c-0.592,1.917-1.805,3.228-3.48,4.137
		c-1.469,0.797-2.659,0.243-3.804-0.89c-2.846-2.816-2.467-5.133,1.196-6.737c0.394-0.173,0.761-0.407,1.141-0.612
		c1.91-0.295,3.487-1.334,5.197-2.408C298.283,76.147,298.283,76.779,298.283,77.41z"/>
	<path display="inline" fill="#0F060C" d="M305.657,84.422c-1.353,0.042-1.55-0.952-1.821-1.816
		c-0.138-0.439,0.227-0.641,0.578-0.475c0.583,0.275,0.882,0.063,0.909-0.478c0.089-1.762,1.002-0.816,1.56-0.427
		c0.613,0.427,0.885,1.095,0.555,1.895C307.086,83.975,306.53,84.484,305.657,84.422z"/>
</g>
<g id="Layer_1_copy">
	<path fill="#EAA8CB" d="M37.176,51.217c7.598-0.097,14.779,1.356,21.184,5.694c1.696,1.149,3.298,2.418,4.723,3.887
		c0.378,0.39,1.445,0.663,0.418,1.609c-0.781,0.719-1.162,0.536-1.787-0.139c-9.869-10.659-29.218-11.845-40.695-4.032
		C12.757,63.862,7.957,71.73,6.657,81.553c-1.869,14.126,2.924,25.668,14.921,33.471c16.322,10.616,39.842,3.307,45.644-16.175
		c0.485-1.628,0.739-3.324,1.123-4.983c0.287-1.241-0.169-1.531-1.419-1.524c-9.785,0.058-19.57,0.023-29.355,0.047
		c-0.942,0.002-1.599-0.032-1.431-1.272c0.077-0.568,0.229-0.762,0.787-0.742c0.883,0.032,1.769,0.008,2.653,0.008
		c9.896,0,19.792,0.029,29.687-0.034c1.343-0.008,1.599,0.354,1.471,1.624c-1.462,14.477-11.248,26.686-25.98,29.289
		c-19.627,3.468-36.511-8.407-40.137-28.188C1.716,77.243,9.608,61.041,23.452,54.46c3.504-1.666,7.169-2.779,11.078-2.948
		C35.433,51.603,36.189,50.373,37.176,51.217z"/>
	<path fill="#EAA8CB" d="M457.319,83.92c0-12.053,0.021-24.105-0.031-36.158c-0.005-1.245,0.301-1.546,1.542-1.541
		c12.439,0.05,24.879,0.028,37.319,0.038c0.69,0.001,1.539-0.345,1.55,1.011c0.01,1.262-0.603,1.27-1.527,1.268
		c-11.5-0.018-23,0.014-34.499-0.044c-1.39-0.007-1.715,0.373-1.706,1.737c0.063,9.841,0.06,19.682,0.002,29.523
		c-0.008,1.323,0.354,1.654,1.659,1.648c11.334-0.052,22.668-0.036,34.002-0.01c0.572,0.001,1.446-0.485,1.532,0.825
		c0.084,1.292-0.573,1.245-1.478,1.244c-11.389-0.017-22.779,0.012-34.168-0.043c-1.3-0.006-1.629,0.322-1.622,1.621
		c0.055,10.891,0.057,21.783-0.002,32.675c-0.007,1.319,0.355,1.606,1.626,1.6c11.555-0.051,23.11-0.014,34.665-0.054
		c1.129-0.004,1.617,0.246,1.496,1.45c-0.062,0.618-0.198,0.931-0.854,0.867c-0.219-0.021-0.442-0.003-0.663-0.003
		c-12.44,0-24.879-0.018-37.319,0.029c-1.216,0.005-1.563-0.255-1.557-1.526C457.341,108.026,457.319,95.973,457.319,83.92z"/>
	<path fill="#EAA8CB" d="M86.636,86.613c0-11.059,0.026-22.118-0.034-33.176c-0.007-1.332,0.374-1.599,1.632-1.592
		c10.34,0.051,20.68,0.024,31.02,0.042c0.656,0.001,1.63-0.426,1.559,0.972c-0.039,0.764-0.175,1.071-1.008,1.052
		c-2.266-0.052-4.534-0.017-6.801-0.017c-7.575,0-15.151,0.021-22.726-0.024c-1.062-0.006-1.381,0.243-1.375,1.347
		c0.046,9.289,0.047,18.579,0,27.868c-0.006,1.108,0.32,1.349,1.377,1.344c9.566-0.04,19.132-0.027,28.697-0.016
		c0.647,0.001,1.5-0.313,1.435,0.947c-0.039,0.755-0.185,1.082-1.015,1.059c-1.934-0.053-3.87-0.017-5.805-0.017
		c-7.796,0-15.593,0.027-23.389-0.028c-1.179-0.008-1.451,0.33-1.446,1.471c0.045,10.063,0.051,20.127-0.005,30.19
		c-0.007,1.292,0.405,1.531,1.603,1.525c9.676-0.049,19.353-0.025,29.029-0.033c0.8-0.001,1.477-0.122,1.442,1.131
		c-0.036,1.283-0.849,0.906-1.466,0.907c-8.571,0.016-17.141,0.011-25.712,0.011c-1.769,0-3.552-0.131-5.304,0.039
		c-1.564,0.152-1.745-0.466-1.739-1.825C86.659,108.73,86.636,97.672,86.636,86.613z"/>
	<path fill="#EAA8CB" d="M149.016,87.717c0,10.836-0.014,21.671,0.023,32.507c0.004,1.04-0.201,1.496-1.334,1.377
		c-0.631-0.066-0.904-0.222-0.842-0.869c0.037-0.383,0.006-0.773,0.006-1.16c0-21.34-0.014-42.679,0.033-64.019
		c0.003-1.365-0.302-1.758-1.706-1.734c-5.25,0.09-10.503,0.035-15.755,0.037c-0.76,0-1.528,0.202-1.519-1.078
		c0.009-1.313,0.839-1.035,1.56-1.036c12.273-0.006,24.546-0.008,36.819,0.006c0.689,0.001,1.566-0.348,1.598,1.001
		c0.034,1.445-0.895,1.098-1.652,1.099c-5.252,0.012-10.505,0.057-15.755-0.029c-1.289-0.021-1.509,0.365-1.503,1.557
		C149.036,66.156,149.016,76.936,149.016,87.717z"/>
	<path fill="#DE6CA9" d="M272.984,51.508c-1.753-1.696-3.318-1.942-5.502-0.608c-9.121,5.571-17.253,12.407-24.988,19.734
		c-2.166,2.052-4.067,4.419-6.399,6.248c-2.373,1.861-3.103,5.016-5.697,6.614c-0.189,0.116-0.443,0.445-0.264,0.864
		c0.119,0.279-0.064,0.621-0.409,0.733c-1.801,0.583-2.618,2.171-3.427,3.63c-0.367,0.661-0.586,1.535-0.806,2.271
		c-0.428,1.432-2.623,1.175-2.432,2.923c0.004,0.037-0.085,0.125-0.098,0.118c-1.496-0.675-1.4,0.911-2.008,1.46
		c-0.317,0.286-0.83,0.764-0.468,1.263c0.655,0.903-0.445,1.074-0.575,1.632c-1.293-1.205-1.236,0.473-1.534,0.852
		c-1.564,1.993-2.804,4.232-4.603,6.083c0.188-0.921,0.419-1.821,0.783-2.663c1.761-4.078,3.684-8.073,5.681-12.046
		c4.115-8.188,7.951-16.517,11.837-24.818c0.709-1.515,1.625-3.009,1.564-4.797c-0.058-1.69-1.487-2.089-2.634-2.561
		c-0.981-0.404-1.857,0.009-2.388,1.128c-0.418,0.88-1.129,1.621-1.707,2.426c-1.054,1.468-2.185,2.893-2.985,4.662
		c1.271,0.108,1.509-1.008,2.293-1.249c0.223,0.331,0.075,0.612-0.083,0.915c-4.366,8.372-8.253,16.977-12.304,25.5
		c-3.271,6.881-6.317,13.866-7.936,21.371c-0.107,0.495-0.276,0.968,0.114,1.399c1.535,1.698,3.619,2.282,5.745,2.488
		c1.673,0.163,2.228-1.438,2.878-2.605c3.591-6.446,7.522-12.666,12.04-18.508c0.611-0.79,1.014-1.753,1.964-2.437
		c0.142,0.427,0.23,0.683,0.312,0.941c2.712,8.5,5.98,16.74,11.502,23.876c2.958,3.822,6.128,7.214,11.737,6.475
		c3.296-0.435,5.723-3.215,4.619-6.134c-0.573,0.766-1.043,1.481-1.599,2.12c-2.236,2.576-3.532,2.664-5.544,1.018
		c-2.152-1.761-4.093-3.709-5.651-5.988c-5.505-8.046-8.756-17.018-10.663-26.517c-0.223-1.112-0.024-2.156,0.787-3.074
		c2.847-3.223,5.66-6.46,8.724-9.5c7.97-7.91,16.536-15.06,25.916-21.228c1.073-0.705,2.087-1.62,3.577-1.458
		c0.574,0.062,0.973-0.481,1.107-1.049C273.591,52.446,273.419,51.929,272.984,51.508z M218.333,86.853
		c-3.242,7.172-7.088,14.036-9.573,21.502C210.469,100.527,214.401,93.669,218.333,86.853z M211.261,107.796
		c0.183-1.374,0.131-2.828,1.528-3.764C212.279,105.287,211.77,106.542,211.261,107.796z M212.466,101.97
		c0.99-2.791,2.129-5.227,3.495-7.571c-0.081,1.443-0.592,2.725-1.325,3.952c-0.378,0.633-1.226,1.107-0.438,2.187
		C214.527,100.988,213.543,101.634,212.466,101.97z M241.817,117.691c-4.64-4.804-7.375-10.675-9.423-16.93
		C234.923,106.748,237.905,112.48,241.817,117.691z M233.176,84.553c-0.441-0.743-0.022-1.171,0.309-1.585
		c4.734-5.903,9.862-11.409,15.928-15.992c0.96-0.725,1.747-1.679,2.616-2.525c0.422-0.411,0.809-0.929,1.815-0.442
		C246.243,70.259,238.948,76.618,233.176,84.553z"/>
	<path fill="#DE6CA9" d="M216.219,74.917c0.847-4.893,0.131-9.909-1.885-14.553c-1.098-2.529-3.325-4.05-5.739-5.247
		c-3.025-1.501-6.381-1.462-9.357-0.632c-3.759,1.048-7.088,3.35-10.157,5.86c-0.201,0.164-0.518,0.524-0.471,0.602
		c0.623,1.014-0.363,1.25-0.817,1.676c-1.569,1.473-3.178,2.903-4.776,4.345c-0.286,0.258-0.653,0.753-0.879,0.7
		c-1.526-0.358-1.867,1.062-3.063,1.737c1.339,0.102,1.606-1.029,2.719-1.405c-1.277,1.425-2.313,2.611-3.391,3.758
		c-0.229,0.244-0.562,0.807-0.95,0.021c-0.139-0.281-0.497-0.021-0.667,0.201c-0.949,1.244-2.106,2.39-1.998,4.201
		c0.332-0.404,0.636-0.775,0.941-1.146c-0.062,0.558-0.279,1.039-0.53,1.501c-1.894,3.493-1.647,7.738,1.165,10.551
		c1.912,1.912,1.795,3.451,0.678,5.619c-2.001,3.884-3.025,8.086-2.104,12.437c1.127,5.32,4.029,10.682,11.223,10.997
		c3.346,0.147,5.915-1.355,8.674-3.694c-1.362,0.205-1.988,1.123-3.192,0.994c0.616-0.422,1.039-0.756,1.502-1.02
		c4.672-2.666,8.457-6.35,11.532-10.676c3.055-4.299,5.282-9.098,7.591-13.844C214.282,83.754,215.454,79.335,216.219,74.917z
		 M213.937,71.192c0.072,0.865,0.406,1.773-0.259,2.695C212.943,72.818,213.88,72.045,213.937,71.192z M206.342,95.206
		c-0.87,1.479-1.74,2.958-2.61,4.437c0.4-1.801,1.347-3.288,2.35-4.744c0.543-1.957,2.254-3.436,2.52-6.03
		c-1.612,1.718-2.316,3.434-3.142,5.071c-3.558,7.054-8.174,13.193-15.063,17.348c-0.839,0.506-1.725,0.972-2.646,1.295
		c-5.85,2.051-8.083-0.554-8.899-5.827c-0.73-4.717,1.405-8.654,3.031-12.77c0.702-1.777,1.809-1.739,3.386-1.32
		c3.788,1.006,7.642,0.73,11.482,0.237c0.128-0.016,0.238-0.176,0.356-0.269c0,0,0,0,0,0c-0.938-0.189-1.922,0.195-3.315-0.338
		c1.53-0.284,2.586-0.697,3.692-0.046c2.077,0.197,3.611-1.335,5.525-1.824c-2.475,0.473-4.948,0.108-7.415,0.332
		c-3.367,0.306-6.691-0.251-9.979-0.963c-0.873-0.189-1.083-0.77-0.618-1.453c3.04-4.463,5.268-9.632,10.484-12.226
		c0.96-0.477,1.098-1.099,0.511-1.968c-1.482-2.192-2.614-3.548-5.561-1.481c-2.024,1.42-3.696,3.082-5.026,5.149
		c-1.959,3.046-4.206,5.917-5.475,9.403c-2.221-1.851-2.902-5.252-1.588-7.785c0.913-1.759,1.925-3.488,3.248-4.959
		c3.185-3.54,6.312-7.055,10.215-9.977c3.698-2.768,7.482-4.93,11.863-6.163c0.894-0.252,1.816-0.425,2.736-0.563
		c1.311-0.196,2.286,0.293,3.132,1.368c1.142,1.451,1.554,3.28,2.738,4.764c0.482,0.604,0.314,2.487,0.26,3.748
		c-0.206,4.821-0.458,9.634-1.882,14.332c-0.577,1.903-1.434,3.781-1.482,5.846c2.384-3.411,2.484-7.63,4.076-11.317
		C212.749,83.401,209.596,89.322,206.342,95.206C206.342,95.206,206.342,95.206,206.342,95.206
		C206.342,95.206,206.342,95.206,206.342,95.206z"/>
	<path fill="none" d="M46.214,38.303c0.012-0.017,0.02-0.038,0.031-0.056c-0.012,0.001-0.024,0.002-0.035,0.004
		C46.21,38.268,46.213,38.285,46.214,38.303z"/>
	<path fill="#EAA8CB" d="M47.427,36.645c0.3-1.859-0.69-3.086-2.121-3.963c-2.081-1.275-4.444-1.609-6.372-0.063
		c-1.942,1.557-3.218,1.424-5.228,0.02c-3.236-2.26-7.55-0.539-8.49,3.007h0c-0.899,2.872,0.034,5.236,2.03,7.303l0,0c0,0,0,0,0,0
		c2.662,2.8,5.325,5.601,7.911,8.32c-0.029,0.011-0.328,0.127-0.628,0.242c0.924,0.281,1.735-0.462,2.647-0.295
		c1.974-2.526,4.596-4.416,6.699-6.815C46.364,42.414,48.071,40.068,47.427,36.645z M46.214,38.303
		c-0.379,2.088-1.918,3.419-3.209,4.913c-1.912,1.806-3.869,3.568-5.716,5.438c-0.77,0.779-1.191,0.741-1.949-0.016
		c-2.286-2.284-4.665-4.475-7.007-6.701c-1.41-1.742-2.271-3.646-1.759-5.956c1.685-2.841,4.37-3.425,7.104-1.528
		c0.45,0.312,0.921,0.642,1.253,1.065c0.951,1.216,1.762,1.164,2.768,0.008c0.869-0.998,1.994-1.737,3.323-2.048
		c3.022-0.707,4.978,1.106,5.187,4.774c0.011-0.002,0.024-0.003,0.035-0.004C46.234,38.265,46.226,38.285,46.214,38.303z"/>
	<path fill="#EAA8CB" d="M396.661,82.221c-4.451-11.166-8.898-22.334-13.343-33.502c-1.086-2.729-1.084-2.65-4.024-2.765
		c-1.328-0.052-1.89,0.381-2.374,1.61c-8.231,20.944-16.52,41.865-24.791,62.793c-1.46,3.696-2.895,7.401-4.36,11.151
		c2.768,0.14,2.76,0.137,3.661-2.19c2.974-7.677,5.984-15.34,8.9-23.039c0.414-1.092,0.955-1.327,2.03-1.323
		c11.663,0.039,23.326,0.048,34.989-0.01c1.23-0.006,1.699,0.448,2.113,1.5c3.019,7.662,6.148,15.28,9.114,22.962
		c0.683,1.768,1.506,2.701,3.547,2c0.138-0.487-0.194-0.857-0.35-1.248C406.748,107.508,401.701,94.866,396.661,82.221z
		 M361.872,92.651c1.127-2.918,2.204-5.721,3.292-8.519c4.494-11.557,8.985-23.116,13.502-34.664
		c0.233-0.595,0.239-1.468,1.307-1.422c0.961,0.041,0.946,0.83,1.163,1.382c5.544,14.093,11.066,28.194,16.59,42.295
		c0.098,0.251,0.165,0.513,0.297,0.928C385.921,92.651,374.002,92.651,361.872,92.651z"/>
	<path fill="#EAA8CB" d="M451.296,46.178c-14.816,0-29.632,0.005-44.448-0.012c-0.865-0.001-1.396-0.001-1.391,1.175
		c0.005,1.21,0.686,1.01,1.38,1.01c6.358,0.001,12.716,0.047,19.072-0.034c1.474-0.019,1.921,0.309,1.917,1.869
		c-0.056,23.274-0.036,46.549-0.049,69.823c-0.001,0.943-0.094,1.629,1.296,1.626c1.319-0.003,1.34-0.555,1.338-1.561
		c-0.027-11.72-0.018-23.44-0.018-35.16c0-11.609,0.036-23.219-0.043-34.828c-0.01-1.533,0.444-1.783,1.838-1.767
		c6.357,0.076,12.715,0.025,19.072,0.042c0.84,0.002,1.42,0.039,1.41-1.164C452.66,46,452,46.178,451.296,46.178z"/>
	<path fill="#EAA8CB" d="M391.186,30.33c0.231-1.101-0.326-1.925-0.988-2.684c-1.794-2.058-5.208-2.743-7.506-0.988
		c-1.977,1.51-3.226,1.4-5.23,0.006c-3.24-2.254-7.548-0.534-8.488,3.011l0,0c-0.897,2.872,0.034,5.235,2.03,7.303c0,0,0,0,0,0
		c0,0,0,0,0,0c2.72,2.654,5.437,5.31,8.162,7.959c0.38,0.37,0.794,0.983,1.374,0.406c2.574-2.555,5.397-4.861,7.703-7.684
		C390.969,35.917,391.57,33.322,391.186,30.33z M387.323,36.658c-0.031,0.001-0.06,0.003-0.09,0.005
		c-0.039,0.082-0.086,0.158-0.123,0.241h0c-2.021,1.912-4.079,3.786-6.042,5.754c-0.746,0.748-1.164,0.818-1.954,0.025
		c-2.285-2.296-4.674-4.487-7.022-6.719l0,0c0.017-0.055,0.023-0.11,0.031-0.165c-0.059-0.009-0.113-0.025-0.176-0.026
		c-1.293-1.655-2.067-3.464-1.636-5.63c0.027-0.001,0.052,0.002,0.079,0.001c0.016-0.007,0.029-0.018,0.044-0.026
		c-0.034-0.037-0.065-0.076-0.103-0.11c0,0,0,0,0,0c1.684-2.84,4.369-3.425,7.103-1.53c0.45,0.312,0.921,0.642,1.253,1.065
		c0.949,1.211,1.759,1.172,2.767,0.012c0.868-0.999,1.993-1.737,3.321-2.049c3.037-0.714,5.004,1.119,5.194,4.819
		c-0.005,0.008-0.011,0.015-0.016,0.023c0.004-0.001,0.007-0.003,0.012-0.004C389.639,34.128,388.441,35.368,387.323,36.658z"/>
	<path fill="#EAA8CB" d="M344.145,77.058c-2.862-18.086-17.542-30.82-35.863-31.134c-7.683-0.132-15.37-0.025-23.054-0.11
		c-1.255-0.014-1.531,0.31-1.526,1.539c0.051,12.108,0.031,24.216,0.031,36.325c0,12.164,0,24.327-0.001,36.491
		c0,0.753-0.211,1.471,1.09,1.437c8.839-0.23,17.696,0.427,26.519-0.38c8.484-0.776,16.102-3.827,22.178-9.895
		C343.037,101.826,346.223,90.19,344.145,77.058z M334.854,106.236c-5.671,7.466-13.458,11.474-22.616,12.618
		c-8.299,1.037-16.677,0.241-25.018,0.443c-0.776,0.019-0.958-0.305-0.887-0.975c0.029-0.273,0.004-0.552,0.004-0.829
		c0-22.561-0.001-45.122,0.006-67.683c0-0.541-0.066-1.172,0.18-1.599c0.255-0.444,0.918-0.197,1.39-0.162
		c0.627,0.046,0.413,0.578,0.335,0.896c-0.472,1.923-0.101,3.783,0.358,5.641c0,0,0,0,0,0c0.243-0.016,0.486-0.032,0.729-0.048v0
		c-0.276-1.892-0.876-3.746-0.345-5.713c0.163-0.605,0.305-0.829,0.923-0.814c7.454,0.182,14.928-0.432,22.363,0.526
		c14.162,1.825,25.355,11.617,28.77,25.58C343.877,85.693,342.186,96.584,334.854,106.236z"/>
	<path fill="#EBA7CA" d="M333.882,87.949c-0.007,0.037-0.019,0.071-0.026,0.108c0.112,0,0.223,0,0.335,0
		c-0.094-0.096-0.194-0.17-0.297-0.236C333.889,87.864,333.888,87.905,333.882,87.949z"/>
	<path fill="#EAA8CB" d="M329.755,77.262c-5.515-3.959-11.272-1.134-12.432,4.535c-0.085,0.417,0.012,0.943-0.499,1.234
		c-0.033,0.003-0.057,0.016-0.092,0.017c-0.023,0.001-0.039-0.008-0.061-0.009c-0.426-0.906-0.851-1.821-1.286-2.731
		c-2.347-4.901-6.736-5.711-11.14-3.452c-1.224,0.628-1.877,0.74-2.576-0.424c0,0,0,0,0,0c0,0,0,0,0,0
		c-0.199-0.904-1.841-1.594-0.358-2.755c0.764-0.598,0.378-2.027,1.907-2.228c3.585-0.471,5.649-2.868,6.884-6.088
		c0.978-2.551,0.366-5.071-1.463-6.199c-1.965-1.211-4.367-0.868-6.113,1.385c-2.223,2.869-4.583,5.807-3.888,9.893
		c0.067,0.394,0.245,0.923-0.304,1.403c-0.033,0.006-0.066,0.014-0.098,0.017c-0.407-0.575-0.812-1.113-1.178-1.676
		c-3.19-4.911-6.155-9.934-7.722-15.647c-0.243,0.016-0.486,0.032-0.729,0.048h0c1.222,6.622,4.767,12.101,8.596,17.436
		c0.216,0.301,0.804,0.688,0.603,0.872c-0.787,0.722-0.377,2.16-1.773,2.558c-1.175,0.335-2.236,1.068-3.348,1.625c0,0,0,0,0,0v0
		c-1.173-0.018-2.064,0.676-2.953,1.272c-1.742,1.168-2.472,2.792-2.06,4.279c0.658,2.373,2.993,4.67,4.854,4.775
		c3.431,0.194,6.623-2.75,6.789-6.337c0.066-1.425-0.026-2.857-0.046-4.286l0,0l0,0c0.464-1.374,0.844-0.11,1.259,0.04c0,0,0,0,0,0
		c0,0,0,0,0,0c1.128,1.164,1.088,2.209,0.192,3.65c-1.447,2.327-1.367,4.975-0.68,7.589c0.208,1.483,0.671,2.857,1.682,4.006
		c4.583,5.208,9.224,10.361,14.248,15.156c0.73,0.697,1.003,0.16,1.435-0.241c4.204-3.893,8.49-7.701,12.586-11.703
		c2.017-1.971,3.929-4.16,4.199-7.22c-0.112,0-0.223,0-0.335,0c0.007-0.037,0.019-0.071,0.026-0.108
		c0.006-0.044,0.007-0.085,0.012-0.128c0.102,0.066,0.202,0.141,0.297,0.236c0.094-0.25,0.254-0.496,0.271-0.752
		C334.746,83.093,333.243,79.766,329.755,77.262z M304.413,82.131c0.583,0.275,0.882,0.063,0.909-0.478
		c0.089-1.762,1.002-0.816,1.56-0.427c0.613,0.427,0.885,1.095,0.555,1.895c-0.352,0.854-0.908,1.363-1.781,1.301
		c-1.353,0.042-1.55-0.952-1.821-1.816C303.697,82.167,304.062,81.965,304.413,82.131z M308.188,60.308
		c1.016,0.748,1.292,1.859,1.206,3.049c-0.235,3.265-2.776,6.061-6.412,7.097c-0.21,0.06-0.441,0.049-0.651,0.109
		c-2.629,0.759-2.628,0.761-2.678-2.645c0.877-2.706,2.257-5.782,5.149-7.843C305.804,59.362,307.128,59.528,308.188,60.308z
		 M298.283,75.388c0,0.759,0,1.39,0,2.022c-0.007,0.003-0.01,0.007-0.017,0.01c0.004,0.008,0.008,0.016,0.013,0.025
		c-0.273,1.469,0.217,2.956-0.245,4.454c-0.592,1.917-1.805,3.228-3.48,4.137c-1.469,0.797-2.659,0.243-3.804-0.89
		c-2.846-2.816-2.467-5.133,1.196-6.737c0.309-0.135,0.601-0.307,0.896-0.474c0.07,0.023,0.137,0.033,0.206,0.05
		c0.015-0.06,0.033-0.117,0.039-0.188C294.996,77.502,296.573,76.462,298.283,75.388z"/>
</g>
</svg>
